<?xml version="1.0" standalone="no"?>
<!DOCTYPE svg PUBLIC "-//W3C//DTD SVG 20010904//EN"
 "http://www.w3.org/TR/2001/REC-SVG-20010904/DTD/svg10.dtd">
<svg version="1.0" xmlns="http://www.w3.org/2000/svg"
 width="500.000000pt" height="500.000000pt" viewBox="0 0 500.000000 500.000000"
 preserveAspectRatio="xMidYMid meet">

<g transform="translate(0.000000,500.000000) scale(0.100000,-0.100000)"
fill="#000000" stroke="none">
<path d="M1262 3921 c-24 -43 -29 -104 -10 -148 12 -28 12 -27 18 22 l5 50 8
-55 9 -55 18 35 c11 19 19 52 20 72 0 38 -26 118 -39 118 -4 0 -17 -17 -29
-39z"/>
<path d="M1342 3709 c-62 -62 -94 -125 -100 -197 -5 -58 15 -170 28 -156 4 5
14 39 23 75 30 121 35 121 30 -1 l-4 -115 40 43 c61 66 84 138 78 242 -5 87
-22 160 -36 160 -4 0 -31 -23 -59 -51z"/>
<path d="M335 3673 c20 -83 73 -139 140 -150 l37 -6 -43 42 -44 42 58 -31 c31
-18 57 -29 57 -26 0 4 -6 21 -14 39 -25 61 -111 117 -180 117 -15 0 -17 -5
-11 -27z"/>
<path d="M870 3633 c1 -32 38 -101 64 -119 35 -22 41 -14 21 28 l-16 33 25
-28 c29 -32 33 -23 12 28 -15 34 -42 57 -83 70 -18 5 -23 2 -23 -12z"/>
<path d="M1675 3619 c-37 -11 -57 -26 -79 -61 l-18 -28 38 15 39 16 -24 -21
-23 -20 27 0 c18 0 40 13 66 39 60 60 50 83 -26 60z"/>
<path d="M873 3509 c47 -66 130 -214 156 -280 43 -107 65 -226 58 -318 -6 -92
-24 -158 -39 -143 -34 34 -92 285 -114 497 l-7 60 -20 -45 c-38 -85 -34 -232
9 -344 4 -10 -9 -7 -42 10 -26 13 -57 24 -70 24 -18 0 -12 -10 41 -64 124
-127 183 -302 158 -473 -7 -43 -15 -86 -18 -95 -7 -16 1 -18 82 -18 l90 0 13
58 c56 255 196 441 386 514 l59 23 -51 3 c-27 2 -80 -3 -117 -11 -37 -7 -67
-11 -67 -8 0 3 5 38 10 76 9 72 -1 242 -12 195 -3 -14 -14 -61 -23 -105 -22
-101 -57 -181 -97 -222 -39 -40 -58 -42 -58 -5 -1 83 -71 323 -128 437 -56
114 -138 216 -196 247 -20 11 -20 11 -3 -13z"/>
<path d="M710 3420 c0 -45 23 -92 59 -123 43 -35 58 -34 32 2 -32 44 -25 49
14 11 37 -36 45 -28 24 27 -14 38 -46 71 -91 94 l-38 19 0 -30z"/>
<path d="M1829 3400 c-40 -21 -65 -53 -74 -96 l-6 -29 25 28 c35 38 42 34 16
-9 -12 -19 -21 -37 -18 -39 2 -2 18 3 37 12 38 19 78 74 87 121 5 27 4 32 -12
32 -11 -1 -35 -9 -55 -20z"/>
<path d="M1573 3269 c-36 -18 -83 -70 -83 -93 0 -4 17 5 37 19 56 37 61 30 12
-15 l-44 -39 33 -1 c63 0 129 49 171 128 11 21 10 22 -36 22 -29 0 -65 -9 -90
-21z"/>
<path d="M1193 3256 c-22 -19 -28 -32 -28 -66 0 -84 95 -121 156 -61 37 37 38
79 3 120 -33 40 -89 43 -131 7z"/>
<path d="M2822 3189 l-72 -21 43 -28 c62 -39 82 -85 81 -185 -1 -98 -37 -213
-116 -367 -29 -57 -54 -106 -56 -110 -2 -5 55 -8 128 -8 l131 0 46 98 c25 53
63 151 86 217 37 108 41 130 41 220 1 111 -10 144 -57 179 -41 30 -158 32
-255 5z"/>
<path d="M735 3120 c-24 -27 -13 -68 22 -76 34 -9 57 6 61 40 6 53 -47 76 -83
36z"/>
<path d="M316 3112 c-10 -17 76 -48 96 -36 8 5 6 10 -8 15 -18 7 -18 8 1 8 17
1 17 3 5 11 -19 12 -87 13 -94 2z"/>
<path d="M1524 3080 c-25 -13 -49 -35 -62 -59 -32 -57 -27 -69 14 -30 l37 34
-28 -43 c-15 -23 -25 -45 -22 -48 3 -3 19 2 36 11 37 18 78 77 87 123 8 39 -3
41 -62 12z"/>
<path d="M595 2961 c-44 -27 -98 -88 -91 -100 9 -14 96 -14 133 0 31 12 70 44
85 72 8 17 6 16 -31 -2 -62 -32 -70 -25 -15 14 l49 35 -50 0 c-31 0 -61 -7
-80 -19z"/>
<path d="M1745 2935 c-47 -17 -105 -75 -105 -107 0 -21 1 -21 31 8 l32 29 -27
-47 -28 -48 31 11 c41 14 88 70 101 120 6 23 10 42 8 44 -2 2 -21 -3 -43 -10z"/>
<path d="M1480 2770 l25 -19 -25 6 -25 5 23 -17 c31 -23 106 -34 100 -14 -7
22 -68 59 -97 59 l-26 0 25 -20z"/>
<path d="M680 2095 l0 -205 30 0 30 0 0 205 0 205 -30 0 -30 0 0 -205z"/>
<path d="M980 2095 l0 -205 30 0 30 0 0 205 0 205 -30 0 -30 0 0 -205z"/>
<path d="M1270 2095 l0 -205 30 0 29 0 3 78 c3 75 4 77 29 80 22 3 33 -8 79
-73 56 -82 64 -88 105 -83 l27 3 -56 77 c-31 42 -56 78 -56 81 0 3 9 7 19 10
34 9 63 66 58 115 -9 82 -71 122 -192 122 l-75 0 0 -205z m164 134 c33 -15 52
-60 37 -88 -16 -29 -43 -41 -95 -41 l-46 0 0 63 c0 35 3 67 7 70 10 11 70 8
97 -4z"/>
<path d="M1780 2096 l0 -206 88 0 c100 0 152 19 195 69 44 52 57 121 36 196
-27 98 -87 136 -226 143 l-93 5 0 -207z m199 120 c40 -21 63 -68 63 -128 0
-85 -57 -138 -149 -138 l-53 0 0 146 0 147 54 -6 c30 -3 68 -13 85 -21z"/>
<path d="M2419 2277 c-66 -35 -102 -93 -107 -171 -3 -49 0 -71 16 -103 38 -74
115 -123 195 -123 32 0 94 24 119 46 15 15 16 18 2 39 l-15 23 -49 -25 c-64
-33 -107 -26 -163 26 -36 34 -41 44 -44 92 -3 42 0 61 16 87 44 69 133 92 201
51 l34 -21 19 23 c18 22 18 24 0 37 -62 48 -154 55 -224 19z"/>
<path d="M2273 1773 c-23 -9 -15 -49 12 -63 33 -17 26 -36 -11 -32 -28 2 -28
2 -10 -13 24 -18 38 -19 54 -3 20 20 14 48 -13 60 -31 14 -27 34 5 30 21 -4
22 -2 11 12 -14 16 -26 19 -48 9z"/>
<path d="M2445 1755 c-14 -13 -25 -31 -25 -40 0 -20 44 -65 63 -65 27 0 60 35
60 65 0 30 -33 65 -60 65 -7 0 -25 -11 -38 -25z m75 -40 c0 -33 -30 -49 -58
-29 -27 19 -27 29 -2 54 26 26 60 12 60 -25z"/>
<path d="M2797 1759 c-30 -23 -35 -59 -12 -83 43 -43 105 -20 105 38 0 55 -50
80 -93 45z m73 -44 c0 -35 -36 -52 -61 -29 -25 22 -24 39 3 58 28 20 58 4 58
-29z"/>
<path d="M2061 1763 c0 -5 10 -30 23 -58 l23 -50 27 53 c15 30 24 57 21 60 -8
8 -35 -27 -35 -45 0 -23 -17 -14 -30 17 -11 27 -31 42 -29 23z"/>
<path d="M2200 1715 c0 -30 5 -55 10 -55 6 0 10 25 10 55 0 30 -4 55 -10 55
-5 0 -10 -25 -10 -55z"/>
<path d="M2370 1715 c0 -30 5 -55 10 -55 6 0 10 25 10 55 0 30 -4 55 -10 55
-5 0 -10 -25 -10 -55z"/>
<path d="M2580 1717 c0 -31 5 -57 10 -57 6 0 10 14 10 32 l0 32 35 -34 35 -34
0 57 c0 31 -4 57 -10 57 -5 0 -10 -14 -10 -32 l0 -32 -35 34 -35 34 0 -57z"/>
<path d="M2930 1715 c0 -30 5 -55 10 -55 6 0 10 9 10 20 0 13 7 20 20 20 11 0
20 5 20 10 0 6 -9 10 -20 10 -11 0 -20 7 -20 15 0 9 9 15 25 15 14 0 25 5 25
10 0 6 -16 10 -35 10 l-35 0 0 -55z"/>
<path d="M3090 1715 l0 -55 35 0 c19 0 35 5 35 10 0 6 -11 10 -25 10 -23 0
-25 4 -25 45 0 25 -4 45 -10 45 -5 0 -10 -25 -10 -55z"/>
<path d="M3190 1715 c0 -42 3 -55 15 -55 12 0 15 13 15 55 0 42 -3 55 -15 55
-12 0 -15 -13 -15 -55z"/>
<path d="M3260 1715 c0 -30 5 -55 10 -55 6 0 10 9 10 20 0 13 7 20 20 20 11 0
20 5 20 10 0 6 -9 10 -20 10 -11 0 -20 7 -20 15 0 9 9 15 25 15 14 0 25 5 25
10 0 6 -16 10 -35 10 l-35 0 0 -55z"/>
<path d="M3360 1715 l0 -55 35 0 c19 0 35 5 35 10 0 6 -11 10 -25 10 -14 0
-25 5 -25 10 0 6 9 10 20 10 11 0 20 7 20 15 0 8 -9 15 -20 15 -11 0 -20 5
-20 10 0 6 11 10 25 10 14 0 25 5 25 10 0 6 -16 10 -35 10 l-35 0 0 -55z"/>
<path d="M1945 1559 c-263 -235 -484 -376 -650 -414 -38 -9 -85 -15 -102 -13
-41 5 -41 -3 0 -38 49 -41 95 -57 169 -56 194 1 489 180 838 511 l85 80 -130
1 -131 0 -79 -71z"/>
<path d="M2332 1494 c-34 -23 -28 -84 10 -102 21 -10 33 -10 49 -2 26 15 18
24 -24 24 -27 1 -32 5 -35 28 -4 30 25 52 52 42 9 -3 16 -2 16 4 0 9 -22 22
-39 22 -3 0 -17 -7 -29 -16z"/>
<path d="M2456 1489 c-51 -40 -21 -100 52 -104 l39 -2 2 48 c1 39 -3 50 -21
63 -29 21 -40 20 -72 -5z m55 -9 c11 -6 19 -21 19 -35 0 -27 -9 -32 -28 -13
-6 6 -15 8 -19 4 -4 -4 -1 -12 7 -17 12 -8 12 -10 -4 -7 -32 5 -43 34 -22 57
22 24 21 24 47 11z"/>
<path d="M3110 1490 c-50 -50 1 -127 65 -98 14 6 25 15 25 19 0 4 3 14 6 23 5
13 -1 16 -25 16 -17 0 -31 -4 -31 -10 0 -5 7 -10 15 -10 8 0 15 -4 15 -10 0
-17 -57 -12 -64 6 -9 24 -8 31 10 48 10 10 25 14 42 10 26 -5 26 -5 8 10 -26
21 -42 20 -66 -4z"/>
<path d="M3322 1494 c-36 -25 -27 -89 15 -105 62 -23 110 54 63 101 -24 24
-48 25 -78 4z m62 -20 c31 -30 8 -69 -36 -62 -30 4 -38 46 -12 65 23 17 29 16
48 -3z"/>
<path d="M3892 1494 c-35 -24 -28 -84 12 -103 25 -12 31 -11 55 6 37 28 39 65
5 92 -32 25 -42 26 -72 5z m62 -20 c31 -30 8 -69 -36 -62 -30 4 -38 46 -12 65
23 17 29 16 48 -3z"/>
<path d="M4536 1489 c-34 -27 -34 -62 1 -88 28 -23 59 -20 81 7 19 25 14 42
-13 42 -14 0 -25 -4 -25 -10 0 -5 8 -10 17 -10 12 0 14 -3 6 -11 -15 -15 -54
-7 -67 13 -15 25 19 60 50 52 27 -7 33 10 8 20 -24 9 -29 8 -58 -15z"/>
<path d="M2221 1476 c-6 -14 -17 -39 -25 -54 l-14 -28 53 0 53 0 -25 51 c-32
64 -31 62 -42 31z m29 -47 c0 -5 -7 -9 -15 -9 -15 0 -20 12 -9 23 8 8 24 -1
24 -14z"/>
<path d="M2590 1450 c0 -38 4 -52 19 -60 40 -21 71 12 71 74 0 51 -18 45 -22
-6 -2 -36 -7 -44 -25 -46 -21 -3 -23 1 -23 42 0 25 -4 46 -10 46 -5 0 -10 -22
-10 -50z"/>
<path d="M2720 1445 c0 -30 5 -55 10 -55 6 0 10 25 10 55 0 30 -4 55 -10 55
-5 0 -10 -25 -10 -55z"/>
<path d="M2780 1446 c0 -31 5 -56 10 -56 6 0 10 12 10 28 l1 27 17 -27 c9 -16
23 -28 30 -28 8 0 10 5 6 12 -5 7 -8 31 -9 53 0 38 -2 40 -32 43 l-33 3 0 -55z
m50 19 c0 -8 -7 -15 -15 -15 -8 0 -15 7 -15 15 0 8 7 15 15 15 8 0 15 -7 15
-15z"/>
<path d="M2900 1445 c0 -30 5 -55 10 -55 6 0 10 25 10 55 0 30 -4 55 -10 55
-5 0 -10 -25 -10 -55z"/>
<path d="M2960 1447 c0 -31 5 -57 10 -57 6 0 10 14 10 32 l0 32 35 -34 35 -34
0 57 c0 31 -4 57 -10 57 -5 0 -10 -14 -10 -32 l0 -32 -35 34 -35 34 0 -57z"/>
<path d="M3460 1445 c0 -30 5 -55 10 -55 6 0 10 11 10 25 0 18 5 25 20 25 11
0 20 5 20 10 0 6 -9 10 -20 10 -11 0 -20 5 -20 10 0 6 9 10 19 10 11 0 23 5
26 10 4 6 -8 10 -29 10 l-36 0 0 -55z"/>
<path d="M3620 1445 c0 -30 5 -55 10 -55 6 0 10 10 10 23 l1 22 18 -22 c28
-34 46 -29 25 6 -16 28 -16 31 0 55 13 21 14 26 2 26 -7 0 -21 -10 -29 -22
l-16 -23 0 23 c-1 12 -5 22 -11 22 -5 0 -10 -25 -10 -55z"/>
<path d="M3740 1447 c0 -31 5 -57 10 -57 6 0 10 14 10 32 l0 32 35 -34 35 -34
0 57 c0 31 -4 57 -10 57 -5 0 -10 -14 -10 -32 l0 -32 -35 34 -35 34 0 -57z"/>
<path d="M4016 1478 c4 -13 12 -38 19 -57 l11 -34 14 33 13 32 17 -32 17 -33
17 48 c18 56 20 65 7 65 -5 0 -14 -12 -19 -27 l-9 -28 -14 29 -13 29 -12 -29
-12 -29 -11 28 c-13 33 -36 37 -25 5z"/>
<path d="M4180 1445 l0 -55 35 0 c19 0 35 5 35 10 0 6 -11 10 -25 10 -23 0
-25 4 -25 45 0 25 -4 45 -10 45 -5 0 -10 -25 -10 -55z"/>
<path d="M4280 1445 l0 -55 35 0 c19 0 35 5 35 10 0 6 -11 10 -25 10 -30 0
-33 20 -5 27 11 3 20 9 20 14 0 5 -9 9 -20 9 -11 0 -20 5 -20 10 0 6 11 10 25
10 14 0 25 5 25 10 0 6 -16 10 -35 10 l-35 0 0 -55z"/>
<path d="M4390 1445 l0 -55 33 0 c41 0 57 15 57 55 0 40 -16 55 -57 55 l-33 0
0 -55z m65 0 c0 -23 -5 -31 -22 -33 -20 -3 -23 1 -23 33 0 32 3 36 23 33 17
-2 22 -10 22 -33z"/>
<path d="M4670 1445 l0 -55 35 0 c19 0 35 5 35 10 0 6 -11 10 -25 10 -16 0
-25 6 -25 15 0 8 9 15 20 15 11 0 20 5 20 10 0 6 -9 10 -20 10 -11 0 -20 5
-20 10 0 6 9 10 19 10 11 0 23 5 26 10 4 6 -8 10 -29 10 l-36 0 0 -55z"/>
</g>
</svg>
