<?xml version="1.0" standalone="no"?>
<!DOCTYPE svg PUBLIC "-//W3C//DTD SVG 20010904//EN"
 "http://www.w3.org/TR/2001/REC-SVG-20010904/DTD/svg10.dtd">
<svg version="1.0" xmlns="http://www.w3.org/2000/svg"
 width="4167.000000pt" height="4167.000000pt" viewBox="0 0 4167.000000 4167.000000"
 preserveAspectRatio="xMidYMid meet">

<g transform="translate(0.000000,4167.000000) scale(0.100000,-0.100000)"
fill="#000000" stroke="none">
<path d="M10739 33043 c-226 -239 -395 -559 -445 -843 -24 -139 -15 -379 20
-516 42 -168 92 -284 184 -424 55 -84 56 -85 63 -55 4 17 7 73 8 125 2 171 45
622 70 740 5 22 10 -41 14 -170 3 -113 15 -270 26 -350 23 -169 61 -398 70
-422 5 -13 19 0 61 53 366 465 394 1062 80 1694 -44 88 -88 170 -98 183 l-17
22 -36 -37z"/>
<path d="M11608 31338 c-260 -196 -546 -465 -712 -673 -613 -765 -771 -1657
-450 -2541 46 -129 140 -334 152 -334 4 0 22 73 41 163 83 394 231 939 365
1339 61 181 133 372 112 297 -92 -335 -149 -907 -163 -1639 l-6 -354 54 43
c391 310 673 678 844 1106 245 610 270 1311 74 2075 -52 203 -188 590 -208
590 -3 0 -50 -33 -103 -72z"/>
<path d="M2700 30867 c0 -34 42 -230 74 -349 190 -693 641 -1119 1273 -1203
120 -16 296 -20 291 -6 -1 5 -55 50 -118 101 -188 152 -334 284 -525 473 -131
131 -162 166 -115 130 95 -73 258 -180 400 -263 136 -80 551 -293 557 -286 7
7 -39 190 -74 290 -204 587 -706 971 -1434 1095 -64 11 -164 23 -223 27 -93 6
-106 5 -106 -9z"/>
<path d="M7225 30383 c16 -222 73 -460 151 -631 110 -242 305 -443 539 -559
91 -44 222 -90 231 -80 15 15 -205 470 -301 622 -40 64 -49 83 -30 65 48 -44
226 -261 328 -400 142 -192 130 -189 124 -25 -6 176 -36 296 -112 450 -148
303 -414 502 -829 620 -48 14 -92 25 -98 25 -5 0 -7 -35 -3 -87z"/>
<path d="M14240 30249 c-522 -67 -890 -326 -1060 -746 -19 -46 -31 -85 -28
-88 14 -15 397 143 595 244 73 38 130 65 127 60 -18 -29 -406 -304 -573 -406
l-35 -21 38 -7 c77 -15 305 1 411 29 311 81 561 294 720 614 41 82 104 243
119 305 l6 27 -127 -1 c-71 -1 -157 -5 -193 -10z"/>
<path d="M7088 29453 c104 -138 306 -423 431 -611 789 -1182 1284 -2340 1466
-3425 60 -360 70 -489 70 -907 -1 -334 -3 -394 -24 -545 -41 -308 -109 -590
-191 -798 -70 -176 -56 -177 -148 13 -455 942 -792 2565 -899 4327 l-17 283
-49 -83 c-248 -422 -396 -888 -438 -1386 -14 -173 -7 -545 15 -709 58 -433
174 -837 350 -1215 l45 -98 -62 63 c-237 243 -577 377 -1003 395 -78 3 -153 3
-168 -1 -26 -6 -21 -11 86 -98 425 -343 798 -744 1066 -1146 595 -890 852
-1941 746 -3052 -34 -357 -110 -744 -203 -1028 -17 -52 -31 -96 -31 -98 0 -2
346 -4 770 -4 l769 0 7 38 c121 706 337 1431 601 2022 567 1268 1468 2200
2563 2650 229 94 554 188 714 207 l50 6 -69 24 c-105 35 -256 61 -434 74 -384
29 -955 -47 -1480 -197 -84 -24 -155 -44 -157 -44 -1 0 8 33 22 73 59 171 109
424 141 707 25 221 24 855 0 1135 -32 353 -102 850 -119 839 -4 -3 -8 -18 -8
-33 0 -46 -58 -450 -100 -696 -186 -1090 -480 -1910 -848 -2367 -80 -99 -224
-234 -296 -277 -72 -43 -176 -85 -186 -74 -4 4 -13 51 -20 103 -7 52 -32 214
-56 360 -259 1552 -689 2868 -1265 3872 -412 717 -893 1272 -1395 1609 -94 63
-281 169 -298 169 -4 0 20 -35 52 -77z"/>
<path d="M5887 28688 c-9 -116 7 -332 34 -460 87 -432 332 -758 708 -947 85
-43 289 -116 298 -107 3 2 -24 42 -59 88 -140 181 -337 471 -423 623 -33 58
-31 57 62 -55 116 -139 578 -580 608 -580 13 0 -2 249 -20 335 -80 386 -307
702 -679 949 -140 93 -392 215 -497 241 l-26 6 -6 -93z"/>
<path d="M15701 28533 c-517 -112 -870 -374 -1043 -775 -66 -152 -114 -370
-106 -482 l3 -48 92 108 c123 146 338 374 448 476 l89 83 -65 -85 c-82 -105
-166 -232 -251 -375 -103 -174 -200 -356 -193 -363 8 -8 109 14 202 44 329
106 601 339 776 664 108 199 191 475 221 733 l6 47 -33 -1 c-17 0 -83 -12
-146 -26z"/>
<path d="M13600 27434 c-607 -83 -1072 -467 -1250 -1036 l-18 -57 117 78 c232
155 465 295 696 416 126 66 125 64 -6 -32 -154 -113 -299 -243 -524 -468
l-210 -210 95 -7 c106 -9 316 5 424 28 115 24 253 72 371 130 370 183 706 560
904 1015 28 64 51 121 51 126 0 30 -463 42 -650 17z"/>
<path d="M10310 27375 c-216 -43 -419 -186 -530 -374 -123 -207 -144 -482 -53
-708 57 -142 195 -304 326 -382 269 -159 615 -148 864 29 235 166 354 411 340
696 -21 425 -375 758 -800 753 -45 0 -111 -7 -147 -14z"/>
<path d="M24640 26793 c-445 -13 -1014 -140 -1670 -371 l-214 -76 79 -13 c230
-39 483 -168 667 -342 400 -376 541 -1002 413 -1834 -137 -889 -610 -2060
-1372 -3396 -73 -128 -133 -235 -133 -237 0 -2 502 -4 1115 -4 l1115 0 27 43
c43 68 360 702 472 947 536 1164 883 2189 1015 3000 45 275 59 440 60 690 0
243 -10 362 -46 530 -157 739 -659 1088 -1528 1063z"/>
<path d="M6365 26190 c-147 -23 -273 -119 -338 -258 -43 -91 -50 -217 -18
-320 68 -225 306 -356 536 -297 131 34 229 115 291 239 31 64 37 87 41 163 8
139 -25 236 -116 335 -97 106 -254 161 -396 138z"/>
<path d="M2831 26035 c-81 -18 -149 -41 -231 -77 -99 -45 -99 -44 -29 -98 130
-101 275 -174 445 -227 81 -24 104 -27 249 -27 155 -1 163 0 254 32 130 45
132 47 91 64 -69 29 -247 88 -370 123 l-125 35 70 -6 c90 -7 415 -53 426 -60
22 -13 6 10 -27 39 -106 95 -260 172 -405 202 -87 18 -262 18 -348 0z"/>
<path d="M13250 25873 c-304 -52 -544 -140 -740 -271 -111 -74 -262 -225 -333
-333 -123 -185 -196 -407 -213 -639 -7 -110 -14 -111 91 15 111 133 350 387
448 476 l92 84 -66 -85 c-160 -205 -475 -740 -437 -740 35 0 192 45 283 80
381 149 662 469 814 925 56 167 119 498 94 494 -4 -1 -19 -4 -33 -6z"/>
<path d="M5565 24900 c-316 -26 -615 -152 -890 -373 -181 -146 -384 -384 -519
-609 l-67 -112 43 -13 c148 -44 426 -83 597 -83 349 0 670 102 927 296 101 76
260 245 333 354 60 89 141 239 141 259 0 5 -100 -39 -222 -99 -260 -126 -702
-310 -743 -310 -5 0 33 23 85 51 203 109 482 306 829 586 11 8 -16 16 -116 33
-134 22 -280 29 -398 20z"/>
<path d="M14850 24573 c-14 -2 -80 -17 -147 -33 -302 -72 -532 -192 -720 -373
-184 -178 -300 -394 -352 -655 -23 -114 -37 -262 -25 -261 5 0 59 59 119 131
118 140 428 465 478 500 27 19 25 15 -14 -33 -63 -77 -146 -197 -221 -319 -61
-98 -248 -433 -248 -443 0 -8 133 23 215 50 472 155 796 536 940 1105 25 96
55 270 55 316 0 23 -16 26 -80 15z"/>
<path d="M12136 23255 c-44 -9 -81 -17 -84 -19 -9 -10 291 -184 453 -263 61
-30 97 -51 80 -47 -38 8 -378 122 -469 157 l-68 27 17 -28 c97 -149 308 -308
495 -372 195 -66 453 -67 663 -3 l59 18 -70 80 c-179 208 -437 374 -674 436
-108 28 -292 34 -402 14z"/>
<path d="M20735 19205 c-127 -21 -245 -51 -355 -92 -586 -217 -1029 -736
-1150 -1349 -27 -138 -37 -381 -21 -520 90 -771 676 -1399 1453 -1556 97 -20
143 -23 328 -23 184 1 230 4 316 23 278 60 515 178 746 371 152 128 155 86
-23 336 -84 118 -156 215 -160 215 -3 0 -39 -30 -80 -66 -401 -355 -891 -433
-1334 -211 -370 185 -625 526 -691 922 -32 197 -3 445 75 632 138 334 433 608
779 723 405 134 825 33 1189 -287 l61 -54 25 33 c96 129 280 384 283 393 9 21
-184 175 -338 271 -171 106 -369 185 -566 225 -131 27 -411 34 -537 14z"/>
<path d="M5620 17435 l0 -1725 270 0 270 0 0 1725 0 1725 -270 0 -270 0 0
-1725z"/>
<path d="M8110 17435 l0 -1725 270 0 270 0 0 1725 0 1725 -270 0 -270 0 0
-1725z"/>
<path d="M10600 17435 l0 -1725 270 0 270 0 0 670 0 670 214 0 214 0 144 -207
c80 -115 283 -406 452 -648 169 -242 314 -450 324 -463 l17 -23 332 3 333 3
-302 415 c-165 228 -391 539 -500 690 l-200 274 34 12 c61 21 172 81 235 127
260 192 413 497 413 822 0 537 -406 991 -974 1090 -73 12 -193 15 -682 15
l-594 0 0 -1725z m1225 1170 c146 -31 295 -128 371 -242 207 -312 45 -716
-336 -839 -47 -15 -104 -18 -387 -22 l-333 -4 0 561 0 561 308 0 c230 0 324
-4 377 -15z"/>
<path d="M14810 17435 l0 -1725 570 0 c673 0 777 8 1034 80 525 148 903 504
1065 1003 133 410 131 908 -6 1301 -84 242 -192 416 -362 586 -214 214 -446
341 -763 419 -227 56 -299 61 -949 61 l-589 0 0 -1725z m1220 1170 c530 -71
893 -415 974 -923 32 -201 19 -466 -32 -642 -101 -347 -345 -598 -692 -714
-173 -58 -256 -68 -612 -73 l-318 -5 0 1186 0 1186 288 0 c191 0 322 -5 392
-15z"/>
<path d="M19006 14804 c-163 -51 -248 -199 -205 -359 18 -66 104 -139 244
-210 140 -71 205 -125 205 -173 0 -60 -54 -92 -153 -92 -74 0 -132 24 -170 69
l-27 32 -75 -52 c-42 -28 -78 -56 -81 -61 -10 -16 44 -86 92 -121 78 -57 134
-72 264 -72 108 0 119 2 180 31 114 54 170 131 178 246 8 110 -32 192 -127
262 -26 19 -103 63 -172 96 -68 34 -132 69 -141 78 -29 25 -23 76 12 106 61
51 158 43 215 -18 l30 -32 70 49 c38 27 72 51 74 53 11 10 -28 70 -70 108 -79
71 -224 96 -343 60z"/>
<path d="M20592 14804 c-176 -36 -329 -172 -389 -347 -33 -92 -36 -233 -9
-317 46 -140 152 -267 267 -323 212 -103 452 -64 614 98 165 165 201 396 95
611 -45 92 -135 186 -218 228 -110 56 -244 74 -360 50z m198 -210 c140 -42
230 -161 230 -307 0 -94 -25 -152 -95 -223 -75 -75 -139 -99 -249 -92 -120 8
-203 65 -263 181 -36 69 -39 187 -6 259 69 151 229 228 383 182z"/>
<path d="M23493 14804 c-180 -39 -330 -172 -390 -347 -20 -56 -25 -93 -26
-167 -1 -154 45 -264 157 -376 105 -104 224 -154 369 -154 290 0 527 237 527
527 0 143 -51 264 -156 370 -81 82 -157 124 -270 148 -83 18 -129 17 -211 -1z
m253 -234 c143 -70 211 -241 157 -394 -23 -63 -92 -140 -157 -174 -45 -24 -62
-27 -146 -27 -87 0 -100 3 -148 29 -63 35 -102 77 -139 149 -36 69 -39 187 -6
258 78 174 269 243 439 159z"/>
<path d="M21490 14296 l0 -516 105 0 106 0 -2 271 c0 148 1 272 3 274 2 2 136
-124 298 -280 162 -157 297 -285 302 -285 4 0 8 232 8 515 l0 515 -105 0 -105
0 0 -281 0 -281 -271 263 c-148 145 -286 277 -305 292 l-34 29 0 -516z"/>
<path d="M17100 14783 c0 -14 465 -1033 471 -1033 5 0 455 974 477 1032 2 5
-45 7 -108 6 l-112 -3 -126 -282 c-69 -156 -128 -283 -132 -283 -3 0 -46 91
-95 203 -48 111 -105 239 -126 285 l-38 82 -105 0 c-58 0 -106 -3 -106 -7z"/>
<path d="M18280 14285 l0 -505 105 0 104 0 1 505 0 505 -105 0 -105 0 0 -505z"/>
<path d="M19710 14285 l0 -505 105 0 105 0 0 505 0 505 -105 0 -105 0 0 -505z"/>
<path d="M24390 14285 l0 -506 103 3 102 3 3 203 2 202 174 0 174 0 1 100 2
100 -176 0 -175 0 0 100 0 100 200 0 200 0 0 100 0 100 -305 0 -305 0 0 -505z"/>
<path d="M25750 14285 l0 -505 305 0 305 0 0 100 0 100 -200 0 -200 0 0 405 0
405 -105 0 -105 0 0 -505z"/>
<path d="M26610 14285 l0 -505 105 0 105 0 0 505 0 505 -105 0 -105 0 0 -505z"/>
<path d="M27120 14285 l0 -505 105 0 c58 0 104 3 104 8 -1 4 -1 96 0 205 l1
197 175 0 175 0 0 100 0 100 -175 0 -175 0 0 100 0 100 200 0 200 0 0 100 0
100 -305 0 -305 0 0 -505z"/>
<path d="M27970 14285 l0 -505 305 0 305 0 0 100 0 100 -200 0 -200 0 0 105 0
105 174 0 174 0 1 100 2 100 -176 0 c-175 0 -175 0 -176 23 -1 21 0 154 1 170
0 4 90 7 200 7 l200 0 0 100 0 100 -305 0 -305 0 0 -505z"/>
<path d="M16740 13518 c-296 -284 -805 -744 -1165 -1054 -1261 -1084 -2380
-1865 -3405 -2378 -695 -348 -1256 -538 -1788 -606 -266 -35 -617 -22 -753 25
-23 9 -44 13 -47 11 -12 -12 150 -218 263 -335 311 -321 657 -495 1125 -568
157 -24 522 -24 705 1 758 102 1606 441 2600 1038 1141 686 2480 1735 3815
2988 285 268 771 742 879 858 l103 112 -1118 0 -1119 -1 -95 -91z"/>
<path d="M18578 12497 c-21 -45 -62 -134 -91 -197 -30 -63 -96 -205 -147 -315
-51 -110 -117 -251 -146 -314 -30 -62 -54 -117 -54 -122 0 -5 49 -9 108 -9
l108 0 34 70 34 70 200 0 201 0 30 -70 30 -70 113 0 c63 0 112 4 110 9 -21 55
-482 1031 -487 1031 -3 -1 -23 -38 -43 -83z m112 -526 c28 -61 50 -113 50
-116 0 -3 -54 -5 -119 -5 l-120 0 45 102 c25 56 53 116 61 132 18 35 13 42 83
-113z"/>
<path d="M19635 12570 c-288 -62 -479 -343 -421 -620 53 -252 268 -430 521
-430 115 0 207 33 303 110 l52 42 -22 31 c-12 18 -39 56 -60 84 l-38 53 -47
-36 c-80 -61 -101 -69 -193 -69 -100 0 -150 20 -219 87 -66 65 -96 136 -96
228 0 62 5 84 28 128 102 195 313 246 483 116 l44 -34 55 74 c30 40 55 78 55
84 0 13 -70 70 -120 98 -87 50 -233 74 -325 54z"/>
<path d="M20664 12565 c-134 -29 -250 -108 -327 -222 -65 -97 -90 -176 -91
-293 0 -154 46 -264 158 -376 77 -77 142 -114 246 -140 87 -22 223 -15 304 16
l58 22 54 -26 c64 -32 176 -61 198 -53 11 5 16 20 16 49 0 24 3 66 6 94 l6 51
-46 7 c-52 8 -64 20 -43 44 52 59 97 203 97 309 0 143 -51 264 -156 370 -81
82 -157 124 -270 148 -83 18 -129 18 -210 0z m252 -235 c153 -75 219 -261 146
-415 -48 -99 -49 -100 -143 -10 -85 81 -150 118 -233 134 -55 10 -52 15 -61
-91 l-6 -77 28 -7 c48 -12 103 -44 150 -87 l46 -42 -34 -5 c-53 -8 -138 8
-192 37 -58 32 -97 75 -134 146 -36 69 -39 187 -6 258 78 174 269 243 439 159z"/>
<path d="M26140 12564 c-251 -53 -435 -294 -417 -549 19 -277 250 -495 523
-495 300 0 494 203 494 517 l0 73 -240 0 -240 0 0 -95 0 -95 130 0 c83 0 130
-4 130 -10 0 -21 -32 -85 -53 -108 -48 -52 -94 -67 -202 -67 -89 0 -106 3
-157 28 -113 55 -172 152 -173 282 0 68 4 89 28 136 32 66 100 132 163 160
104 46 205 32 318 -46 l66 -45 55 78 c30 42 55 80 55 84 0 11 -99 83 -149 108
-103 51 -220 67 -331 44z"/>
<path d="M27884 12566 c-136 -31 -252 -110 -327 -223 -66 -99 -90 -177 -90
-293 -1 -101 14 -161 61 -255 34 -68 153 -185 222 -218 214 -103 452 -65 615
98 163 163 201 398 98 613 -34 71 -150 190 -218 224 -113 58 -253 78 -361 54z
m252 -236 c111 -55 174 -158 174 -288 0 -237 -262 -389 -473 -275 -58 32 -97
75 -134 146 -36 70 -39 188 -7 258 81 174 270 243 440 159z"/>
<path d="M32670 12573 c-243 -36 -422 -211 -460 -449 -27 -167 33 -337 160
-458 104 -98 224 -146 363 -146 197 0 383 114 470 288 46 93 61 166 54 272
-14 225 -161 409 -377 474 -55 17 -163 26 -210 19z m206 -243 c233 -115 233
-444 -1 -568 -44 -24 -61 -27 -145 -27 -87 0 -100 3 -148 29 -63 35 -102 77
-139 149 -36 69 -39 187 -6 258 78 174 269 243 439 159z"/>
<path d="M38000 12564 c-252 -53 -435 -294 -417 -549 16 -216 151 -395 353
-466 74 -26 210 -35 287 -20 91 19 188 74 248 139 88 96 129 212 129 362 l0
80 -240 0 -240 0 0 -95 0 -95 130 0 c83 0 130 -4 130 -10 0 -21 -32 -85 -53
-108 -48 -52 -94 -67 -202 -67 -89 0 -106 3 -157 28 -113 55 -172 152 -173
282 0 68 4 89 28 136 32 66 100 132 163 160 104 46 205 32 318 -46 l66 -45 55
78 c30 42 55 80 55 84 0 12 -101 84 -157 112 -57 28 -166 55 -223 54 -19 0
-64 -7 -100 -14z"/>
<path d="M24650 12056 l0 -516 104 0 105 0 1 272 c0 150 2 273 3 275 2 1 135
-126 297 -282 162 -157 298 -285 302 -285 4 0 8 232 8 515 l0 515 -105 0 -105
0 0 -281 0 -281 -271 263 c-148 145 -286 277 -305 292 l-34 29 0 -516z"/>
<path d="M31130 12056 l0 -516 104 0 105 0 1 272 c0 150 2 273 3 275 2 1 135
-126 297 -282 162 -157 298 -285 302 -285 4 0 8 232 8 515 l0 515 -105 0 -105
0 0 -281 0 -281 -271 263 c-148 145 -286 277 -305 292 l-34 29 0 -516z"/>
<path d="M36550 12051 l0 -511 193 0 c274 0 372 27 484 133 61 57 115 157 133
244 17 82 8 253 -18 325 -51 141 -147 233 -293 283 -79 26 -97 28 -291 33
l-208 4 0 -511z m448 269 c111 -49 168 -152 160 -294 -5 -106 -41 -176 -111
-223 -64 -43 -104 -53 -209 -53 l-88 0 0 301 0 301 98 -4 c73 -3 110 -10 150
-28z"/>
<path d="M21552 12183 c3 -362 3 -369 27 -428 33 -82 124 -173 206 -205 48
-20 79 -24 155 -24 76 0 107 4 155 24 82 32 173 123 206 205 24 59 24 66 27
428 l3 367 -105 0 -105 0 -3 -354 -3 -354 -31 -39 c-38 -48 -87 -73 -142 -73
-76 0 -146 46 -171 113 -7 18 -11 152 -11 368 l0 339 -105 0 -106 0 3 -367z"/>
<path d="M22630 12045 l0 -506 103 3 102 3 3 503 2 502 -105 0 -105 0 0 -505z"/>
<path d="M23140 12046 l0 -506 105 0 105 0 0 232 0 233 155 -233 155 -232 126
0 c79 0 123 4 119 10 -3 5 -67 94 -141 197 -120 167 -133 189 -117 198 10 6
44 35 75 66 43 43 60 69 72 110 47 158 -20 315 -168 392 l-61 32 -212 3 -213
3 0 -505z m367 293 c100 -37 121 -147 41 -214 -27 -23 -38 -25 -119 -25 l-89
0 0 125 0 125 69 0 c38 0 82 -5 98 -11z"/>
<path d="M24140 12045 l0 -505 104 0 105 0 1 505 1 505 -106 0 -105 0 0 -505z"/>
<path d="M28790 12045 l0 -506 103 3 102 3 3 203 2 202 174 0 174 0 1 100 2
100 -176 0 -175 0 0 100 0 100 200 0 200 0 0 100 0 100 -305 0 -305 0 0 -505z"/>
<path d="M30150 12045 l0 -505 100 0 100 0 2 216 3 215 150 -215 150 -216 127
0 127 0 -179 255 c-99 141 -180 258 -180 261 0 2 69 109 153 237 84 127 156
238 160 245 6 9 -18 12 -111 12 l-119 0 -64 -97 c-35 -54 -98 -152 -141 -217
l-78 -119 0 216 0 217 -100 0 -100 0 0 -505z"/>
<path d="M33380 12548 c1 -20 329 -1013 336 -1015 5 -1 63 115 128 260 66 144
122 265 125 269 4 4 62 -114 131 -262 69 -149 129 -269 134 -267 7 2 336 996
336 1015 0 1 -50 1 -112 0 l-112 -3 -73 -240 c-40 -132 -75 -244 -76 -249 -2
-5 -52 104 -111 243 -60 138 -110 251 -111 251 -2 0 -51 -113 -111 -252 -59
-138 -109 -247 -111 -242 -1 5 -36 117 -76 249 l-74 240 -111 3 c-62 1 -112 1
-112 0z"/>
<path d="M34800 12045 l0 -505 305 0 305 0 0 100 0 100 -200 0 -200 0 0 405 0
405 -105 0 -105 0 0 -505z"/>
<path d="M35660 12045 l0 -505 305 0 305 0 0 100 0 100 -200 0 -200 0 0 105 0
105 173 2 172 3 3 98 3 97 -175 0 c-104 0 -176 4 -178 10 -1 5 -2 50 0 100 l3
90 200 0 199 0 0 100 0 100 -305 0 -305 0 0 -505z"/>
<path d="M38870 12045 l0 -505 305 0 305 0 0 100 0 100 -200 0 -200 0 0 105 0
105 175 0 175 0 0 100 0 100 -175 0 -175 0 0 100 0 100 200 0 200 0 0 100 0
100 -305 0 -305 0 0 -505z"/>
</g>
</svg>
